<?xml version="1.0" standalone="no"?>
<!DOCTYPE svg PUBLIC "-//W3C//DTD SVG 20010904//EN"
 "http://www.w3.org/TR/2001/REC-SVG-20010904/DTD/svg10.dtd">
<svg version="1.0" xmlns="http://www.w3.org/2000/svg"
 width="236.000000pt" height="220.000000pt" viewBox="0 0 236.000000 220.000000"
 preserveAspectRatio="xMidYMid meet">

<g transform="translate(0.000000,220.000000) scale(0.100000,-0.100000)"
fill="#7370d8" stroke="none">
<path d="M937 1764 c-120 -119 -215 -220 -210 -225 4 -4 49 -9 98 -11 l90 -3
3 -37 c3 -31 0 -38 -15 -38 -27 -1 -573 -186 -586 -199 -17 -17 -2 -26 97 -56
48 -15 84 -31 80 -35 -5 -5 -58 -21 -119 -36 -170 -43 -171 -53 -10 -103 55
-18 124 -41 153 -53 l52 -20 0 -243 c0 -182 3 -245 13 -253 15 -12 554 -192
576 -192 22 0 563 180 579 193 9 7 12 67 12 238 0 171 3 230 13 236 6 4 80 30
162 58 104 35 150 55 150 65 0 10 -38 27 -122 55 -67 22 -127 45 -133 51 -7 7
13 17 67 33 123 36 142 44 147 57 3 7 -7 17 -22 23 -89 34 -563 181 -585 181
-24 0 -27 4 -27 34 0 42 9 46 110 46 50 0 81 4 86 12 5 8 -72 89 -211 225
-121 117 -222 213 -225 213 -3 0 -103 -98 -223 -216z m407 -8 c97 -93 176
-175 176 -182 0 -11 -18 -14 -75 -14 l-75 0 0 -242 c0 -134 -4 -248 -8 -254
-4 -6 -51 -26 -106 -43 l-98 -32 -99 32 -99 33 -2 250 -3 251 -78 3 c-48 2
-77 7 -75 13 5 15 352 359 360 356 3 -1 85 -78 182 -171z m-426 -407 l-3 -61
-50 -18 c-27 -10 -102 -34 -165 -54 l-115 -37 -80 26 c-44 14 -85 25 -92 25
-7 0 -13 4 -13 9 0 11 463 169 498 170 22 1 23 -2 20 -60z m574 51 c20 -8 364
-117 427 -135 45 -13 9 -30 -159 -76 -30 -9 -57 -3 -195 43 l-160 53 -3 39
c-5 64 4 86 38 86 16 0 39 -4 52 -10z m-572 -245 c0 -47 -1 -85 -3 -85 -8 0
-238 80 -249 86 -12 8 198 82 235 83 15 1 17 -9 17 -84z m618 48 c61 -20 112
-40 112 -44 0 -9 -210 -79 -234 -79 -13 0 -16 14 -16 80 0 57 4 80 13 80 6 0
63 -17 125 -37z m-708 -142 c129 -43 236 -83 238 -89 2 -6 -28 -17 -65 -26
-37 -8 -90 -22 -117 -30 l-49 -15 -241 80 c-133 44 -245 84 -249 88 -4 5 11
13 35 20 24 6 75 20 113 30 39 10 77 19 85 20 8 0 121 -35 250 -78z m1033 36
c95 -32 125 -46 115 -53 -7 -6 -119 -45 -249 -88 l-236 -77 -126 41 c-70 23
-127 45 -127 49 0 7 460 167 485 169 6 1 68 -18 138 -41z m-723 -477 c0 -176
-3 -320 -7 -319 -5 0 -123 40 -263 87 l-255 87 -3 228 c-2 169 1 227 9 227 7
0 57 -14 112 -31 l100 -32 136 36 c75 19 144 35 154 36 16 1 17 -21 17 -319z
m202 270 l151 -49 104 34 c57 19 106 35 108 35 3 0 4 -98 3 -217 l-3 -218
-242 -81 c-133 -45 -251 -84 -263 -87 -20 -5 -20 -3 -20 314 0 175 2 319 5
319 3 0 74 -22 157 -50z"/>
</g>
</svg>
