<svg width="137" height="67" viewBox="0 0 137 67" fill="none" xmlns="http://www.w3.org/2000/svg">
<path d="M44.296 60C44.0613 60 43.864 59.92 43.704 59.76C43.544 59.6 43.464 59.4027 43.464 59.168V47.504H45.128V59.168C45.128 59.4027 45.048 59.6 44.888 59.76C44.728 59.92 44.5307 60 44.296 60ZM40.008 49.04C39.784 49.04 39.5973 48.9707 39.448 48.832C39.3093 48.6827 39.24 48.496 39.24 48.272C39.24 48.048 39.3093 47.8667 39.448 47.728C39.5973 47.5787 39.784 47.504 40.008 47.504H48.568C48.792 47.504 48.9733 47.5787 49.112 47.728C49.2613 47.8667 49.336 48.048 49.336 48.272C49.336 48.496 49.2613 48.6827 49.112 48.832C48.9733 48.9707 48.792 49.04 48.568 49.04H40.008ZM52.7239 60.064C51.8385 60.064 51.0492 59.8773 50.3559 59.504C49.6732 59.12 49.1345 58.5973 48.7399 57.936C48.3559 57.264 48.1639 56.496 48.1639 55.632C48.1639 54.7573 48.3452 53.9893 48.7079 53.328C49.0812 52.656 49.5932 52.1333 50.2439 51.76C50.8945 51.376 51.6412 51.184 52.4839 51.184C53.3159 51.184 54.0305 51.3707 54.6279 51.744C55.2252 52.1067 55.6785 52.6133 55.9879 53.264C56.3079 53.904 56.4679 54.6453 56.4679 55.488C56.4679 55.6907 56.3985 55.8613 56.2599 56C56.1212 56.128 55.9452 56.192 55.7319 56.192H49.2839V54.912H55.6839L55.0279 55.36C55.0172 54.8267 54.9105 54.352 54.7079 53.936C54.5052 53.5093 54.2172 53.1733 53.8439 52.928C53.4705 52.6827 53.0172 52.56 52.4839 52.56C51.8759 52.56 51.3532 52.6933 50.9159 52.96C50.4892 53.2267 50.1639 53.5947 49.9399 54.064C49.7159 54.5227 49.6039 55.0453 49.6039 55.632C49.6039 56.2187 49.7372 56.7413 50.0039 57.2C50.2705 57.6587 50.6385 58.0213 51.1079 58.288C51.5772 58.5547 52.1159 58.688 52.7239 58.688C53.0545 58.688 53.3905 58.6293 53.7319 58.512C54.0839 58.384 54.3665 58.24 54.5799 58.08C54.7399 57.9627 54.9105 57.904 55.0919 57.904C55.2839 57.8933 55.4492 57.9467 55.5879 58.064C55.7692 58.224 55.8652 58.4 55.8759 58.592C55.8865 58.784 55.8012 58.9493 55.6199 59.088C55.2572 59.376 54.8039 59.6107 54.2599 59.792C53.7265 59.9733 53.2145 60.064 52.7239 60.064ZM62.2049 60.064C61.3515 60.064 60.5889 59.872 59.9169 59.488C59.2555 59.0933 58.7329 58.5653 58.3489 57.904C57.9755 57.232 57.7889 56.4747 57.7889 55.632C57.7889 54.768 57.9755 54 58.3489 53.328C58.7222 52.656 59.2342 52.1333 59.8849 51.76C60.5355 51.376 61.2822 51.184 62.1249 51.184C62.7542 51.184 63.3302 51.3067 63.8529 51.552C64.3755 51.7867 64.8449 52.144 65.2609 52.624C65.4102 52.7947 65.4635 52.9707 65.4209 53.152C65.3782 53.3333 65.2609 53.4933 65.0689 53.632C64.9195 53.7387 64.7542 53.776 64.5729 53.744C64.3915 53.7013 64.2262 53.6053 64.0769 53.456C63.5542 52.9013 62.9035 52.624 62.1249 52.624C61.5809 52.624 61.1009 52.752 60.6849 53.008C60.2689 53.2533 59.9435 53.6 59.7089 54.048C59.4742 54.496 59.3569 55.024 59.3569 55.632C59.3569 56.208 59.4742 56.72 59.7089 57.168C59.9542 57.616 60.2902 57.9733 60.7169 58.24C61.1435 58.496 61.6395 58.624 62.2049 58.624C62.5782 58.624 62.9035 58.5813 63.1809 58.496C63.4689 58.4 63.7302 58.256 63.9649 58.064C64.1355 57.9253 64.3115 57.8507 64.4929 57.84C64.6742 57.8187 64.8342 57.8667 64.9729 57.984C65.1542 58.1333 65.2555 58.304 65.2769 58.496C65.2982 58.6773 65.2342 58.8427 65.0849 58.992C64.3169 59.7067 63.3569 60.064 62.2049 60.064ZM75.2383 60.016C75.0036 60.016 74.8063 59.9413 74.6463 59.792C74.4969 59.632 74.4223 59.4347 74.4223 59.2V55.264C74.4223 54.656 74.3103 54.16 74.0863 53.776C73.8623 53.392 73.5583 53.1093 73.1743 52.928C72.8009 52.736 72.3689 52.64 71.8783 52.64C71.4303 52.64 71.0249 52.7307 70.6623 52.912C70.2996 53.0933 70.0116 53.3387 69.7983 53.648C69.5849 53.9467 69.4783 54.2933 69.4783 54.688H68.4703C68.4703 54.016 68.6303 53.4187 68.9503 52.896C69.2809 52.3627 69.7289 51.9413 70.2943 51.632C70.8596 51.3227 71.4943 51.168 72.1983 51.168C72.9343 51.168 73.5903 51.328 74.1663 51.648C74.7529 51.9573 75.2116 52.416 75.5423 53.024C75.8836 53.632 76.0543 54.3787 76.0543 55.264V59.2C76.0543 59.4347 75.9743 59.632 75.8142 59.792C75.6649 59.9413 75.4729 60.016 75.2383 60.016ZM68.6623 60.016C68.4276 60.016 68.2303 59.9413 68.0703 59.792C67.9209 59.632 67.8463 59.4347 67.8463 59.2V52.064C67.8463 51.8187 67.9209 51.6213 68.0703 51.472C68.2303 51.3227 68.4276 51.248 68.6623 51.248C68.9076 51.248 69.1049 51.3227 69.2543 51.472C69.4036 51.6213 69.4783 51.8187 69.4783 52.064V59.2C69.4783 59.4347 69.4036 59.632 69.2543 59.792C69.1049 59.9413 68.9076 60.016 68.6623 60.016ZM82.7205 60.064C81.8565 60.064 81.0938 59.8773 80.4325 59.504C79.7712 59.12 79.2485 58.5973 78.8645 57.936C78.4912 57.264 78.3045 56.496 78.3045 55.632C78.3045 54.7573 78.4912 53.9893 78.8645 53.328C79.2485 52.656 79.7712 52.1333 80.4325 51.76C81.0938 51.376 81.8565 51.184 82.7205 51.184C83.5738 51.184 84.3312 51.376 84.9925 51.76C85.6538 52.1333 86.1712 52.656 86.5445 53.328C86.9285 53.9893 87.1205 54.7573 87.1205 55.632C87.1205 56.496 86.9338 57.264 86.5605 57.936C86.1872 58.5973 85.6698 59.12 85.0085 59.504C84.3472 59.8773 83.5845 60.064 82.7205 60.064ZM82.7205 58.624C83.2752 58.624 83.7658 58.496 84.1925 58.24C84.6192 57.984 84.9498 57.632 85.1845 57.184C85.4298 56.736 85.5525 56.2187 85.5525 55.632C85.5525 55.0453 85.4298 54.528 85.1845 54.08C84.9498 53.6213 84.6192 53.264 84.1925 53.008C83.7658 52.752 83.2752 52.624 82.7205 52.624C82.1658 52.624 81.6752 52.752 81.2485 53.008C80.8218 53.264 80.4858 53.6213 80.2405 54.08C79.9952 54.528 79.8725 55.0453 79.8725 55.632C79.8725 56.2187 79.9952 56.736 80.2405 57.184C80.4858 57.632 80.8218 57.984 81.2485 58.24C81.6752 58.496 82.1658 58.624 82.7205 58.624ZM91.6294 60C91.16 60 90.744 59.872 90.3814 59.616C90.0187 59.36 89.736 59.0133 89.5334 58.576C89.3307 58.128 89.2294 57.616 89.2294 57.04V48.304C89.2294 48.0693 89.304 47.8773 89.4534 47.728C89.6027 47.5787 89.7947 47.504 90.0294 47.504C90.264 47.504 90.456 47.5787 90.6054 47.728C90.7547 47.8773 90.8294 48.0693 90.8294 48.304V57.04C90.8294 57.4347 90.904 57.76 91.0534 58.016C91.2027 58.272 91.3947 58.4 91.6294 58.4H92.0294C92.2427 58.4 92.4134 58.4747 92.5414 58.624C92.68 58.7733 92.7494 58.9653 92.7494 59.2C92.7494 59.4347 92.648 59.6267 92.4454 59.776C92.2427 59.9253 91.9814 60 91.6614 60H91.6294ZM97.8299 60.064C96.9659 60.064 96.2032 59.8773 95.5419 59.504C94.8805 59.12 94.3579 58.5973 93.9739 57.936C93.6005 57.264 93.4139 56.496 93.4139 55.632C93.4139 54.7573 93.6005 53.9893 93.9739 53.328C94.3579 52.656 94.8805 52.1333 95.5419 51.76C96.2032 51.376 96.9659 51.184 97.8299 51.184C98.6832 51.184 99.4405 51.376 100.102 51.76C100.763 52.1333 101.281 52.656 101.654 53.328C102.038 53.9893 102.23 54.7573 102.23 55.632C102.23 56.496 102.043 57.264 101.67 57.936C101.297 58.5973 100.779 59.12 100.118 59.504C99.4565 59.8773 98.6939 60.064 97.8299 60.064ZM97.8299 58.624C98.3845 58.624 98.8752 58.496 99.3019 58.24C99.7285 57.984 100.059 57.632 100.294 57.184C100.539 56.736 100.662 56.2187 100.662 55.632C100.662 55.0453 100.539 54.528 100.294 54.08C100.059 53.6213 99.7285 53.264 99.3019 53.008C98.8752 52.752 98.3845 52.624 97.8299 52.624C97.2752 52.624 96.7845 52.752 96.3579 53.008C95.9312 53.264 95.5952 53.6213 95.3499 54.08C95.1045 54.528 94.9819 55.0453 94.9819 55.632C94.9819 56.2187 95.1045 56.736 95.3499 57.184C95.5952 57.632 95.9312 57.984 96.3579 58.24C96.7845 58.496 97.2752 58.624 97.8299 58.624ZM108.307 60.064C107.507 60.064 106.797 59.8773 106.179 59.504C105.571 59.12 105.091 58.5973 104.739 57.936C104.387 57.264 104.211 56.496 104.211 55.632C104.211 54.7573 104.397 53.9893 104.771 53.328C105.155 52.656 105.677 52.1333 106.339 51.76C107 51.376 107.763 51.184 108.627 51.184C109.48 51.184 110.237 51.376 110.899 51.76C111.56 52.1333 112.077 52.656 112.451 53.328C112.835 53.9893 113.027 54.7573 113.027 55.632H112.083C112.083 56.496 111.917 57.264 111.587 57.936C111.267 58.5973 110.824 59.12 110.259 59.504C109.693 59.8773 109.043 60.064 108.307 60.064ZM108.595 63.632C107.837 63.632 107.128 63.4827 106.467 63.184C105.805 62.8853 105.245 62.448 104.787 61.872C104.648 61.6907 104.595 61.504 104.627 61.312C104.669 61.12 104.776 60.9653 104.947 60.848C105.139 60.72 105.336 60.6773 105.539 60.72C105.752 60.7627 105.923 60.8693 106.051 61.04C106.339 61.4027 106.701 61.6853 107.139 61.888C107.576 62.0907 108.072 62.192 108.627 62.192C109.139 62.192 109.608 62.0693 110.035 61.824C110.472 61.5787 110.819 61.216 111.075 60.736C111.331 60.256 111.459 59.6693 111.459 58.976V56.704L111.987 55.296L113.027 55.632V59.088C113.027 59.9307 112.84 60.6933 112.467 61.376C112.093 62.0693 111.571 62.6187 110.899 63.024C110.237 63.4293 109.469 63.632 108.595 63.632ZM108.627 58.624C109.181 58.624 109.672 58.496 110.099 58.24C110.525 57.984 110.856 57.632 111.091 57.184C111.336 56.736 111.459 56.2187 111.459 55.632C111.459 55.0453 111.336 54.528 111.091 54.08C110.856 53.6213 110.525 53.264 110.099 53.008C109.672 52.752 109.181 52.624 108.627 52.624C108.072 52.624 107.581 52.752 107.155 53.008C106.728 53.264 106.392 53.6213 106.147 54.08C105.901 54.528 105.779 55.0453 105.779 55.632C105.779 56.2187 105.901 56.736 106.147 57.184C106.392 57.632 106.728 57.984 107.155 58.24C107.581 58.496 108.072 58.624 108.627 58.624ZM116.432 60C116.197 60 116 59.9253 115.84 59.776C115.69 59.616 115.616 59.4187 115.616 59.184V52.064C115.616 51.8187 115.69 51.6213 115.84 51.472C116 51.3227 116.197 51.248 116.432 51.248C116.677 51.248 116.874 51.3227 117.024 51.472C117.173 51.6213 117.248 51.8187 117.248 52.064V59.184C117.248 59.4187 117.173 59.616 117.024 59.776C116.874 59.9253 116.677 60 116.432 60ZM116.496 49.872C116.261 49.872 116.064 49.7973 115.904 49.648C115.754 49.488 115.68 49.2907 115.68 49.056C115.68 48.832 115.744 48.6507 115.872 48.512L117.44 46.944C117.6 46.784 117.792 46.704 118.016 46.704C118.261 46.704 118.458 46.784 118.608 46.944C118.757 47.104 118.832 47.3013 118.832 47.536C118.832 47.6427 118.816 47.744 118.784 47.84C118.752 47.936 118.693 48.0213 118.608 48.096L117.056 49.648C116.906 49.7973 116.72 49.872 116.496 49.872ZM123.932 60.064C123.153 60.064 122.454 59.872 121.836 59.488C121.217 59.0933 120.726 58.5653 120.364 57.904C120.012 57.232 119.836 56.4747 119.836 55.632C119.836 54.7893 120.028 54.032 120.412 53.36C120.806 52.688 121.334 52.16 121.996 51.776C122.668 51.3813 123.42 51.184 124.252 51.184C125.084 51.184 125.83 51.3813 126.492 51.776C127.153 52.16 127.676 52.688 128.06 53.36C128.454 54.032 128.652 54.7893 128.652 55.632H128.028C128.028 56.4747 127.846 57.232 127.484 57.904C127.132 58.5653 126.646 59.0933 126.028 59.488C125.409 59.872 124.71 60.064 123.932 60.064ZM124.252 58.624C124.796 58.624 125.281 58.496 125.708 58.24C126.134 57.9733 126.47 57.616 126.716 57.168C126.961 56.7093 127.084 56.1973 127.084 55.632C127.084 55.056 126.961 54.544 126.716 54.096C126.47 53.6373 126.134 53.28 125.708 53.024C125.281 52.7573 124.796 52.624 124.252 52.624C123.718 52.624 123.233 52.7573 122.796 53.024C122.369 53.28 122.028 53.6373 121.772 54.096C121.526 54.544 121.404 55.056 121.404 55.632C121.404 56.1973 121.526 56.7093 121.772 57.168C122.028 57.616 122.369 57.9733 122.796 58.24C123.233 58.496 123.718 58.624 124.252 58.624ZM127.836 60.016C127.601 60.016 127.404 59.9413 127.244 59.792C127.094 59.632 127.02 59.4347 127.02 59.2V56.752L127.324 55.056L128.652 55.632V59.2C128.652 59.4347 128.572 59.632 128.412 59.792C128.262 59.9413 128.07 60.016 127.836 60.016Z" fill="#413E7E"/>
<path d="M16.578 35C16.0207 35 15.552 34.81 15.172 34.43C14.792 34.05 14.602 33.5813 14.602 33.024V5.322H18.554V33.024C18.554 33.5813 18.364 34.05 17.984 34.43C17.604 34.81 17.1353 35 16.578 35ZM6.394 8.97C5.862 8.97 5.41867 8.80533 5.064 8.476C4.73467 8.12133 4.57 7.678 4.57 7.146C4.57 6.614 4.73467 6.18333 5.064 5.854C5.41867 5.49933 5.862 5.322 6.394 5.322H26.724C27.256 5.322 27.6867 5.49933 28.016 5.854C28.3707 6.18333 28.548 6.614 28.548 7.146C28.548 7.678 28.3707 8.12133 28.016 8.476C27.6867 8.80533 27.256 8.97 26.724 8.97H6.394ZM35.5682 35.19C33.8202 35.19 32.2495 34.8227 30.8562 34.088C29.4882 33.328 28.3989 32.226 27.5882 30.782C26.8029 29.338 26.4102 27.5647 26.4102 25.462V16.114C26.4102 15.5567 26.5875 15.1007 26.9422 14.746C27.3222 14.366 27.7909 14.176 28.3482 14.176C28.9055 14.176 29.3615 14.366 29.7162 14.746C30.0962 15.1007 30.2862 15.5567 30.2862 16.114V25.462C30.2862 26.8807 30.5522 28.0587 31.0842 28.996C31.6162 29.908 32.3382 30.592 33.2502 31.048C34.1622 31.4787 35.1882 31.694 36.3282 31.694C37.4175 31.694 38.3802 31.4787 39.2162 31.048C40.0775 30.6173 40.7615 30.0347 41.2682 29.3C41.7749 28.5653 42.0282 27.742 42.0282 26.83H44.4222C44.4222 28.4007 44.0295 29.8193 43.2442 31.086C42.4842 32.3527 41.4329 33.3533 40.0902 34.088C38.7729 34.8227 37.2655 35.19 35.5682 35.19ZM43.9662 35C43.4089 35 42.9402 34.8227 42.5602 34.468C42.2055 34.088 42.0282 33.6193 42.0282 33.062V16.114C42.0282 15.5313 42.2055 15.0627 42.5602 14.708C42.9402 14.3533 43.4089 14.176 43.9662 14.176C44.5489 14.176 45.0175 14.3533 45.3722 14.708C45.7269 15.0627 45.9042 15.5313 45.9042 16.114V33.062C45.9042 33.6193 45.7269 34.088 45.3722 34.468C45.0175 34.8227 44.5489 35 43.9662 35ZM54.5925 22.004C54.5925 20.484 54.9599 19.1287 55.6945 17.938C56.4545 16.722 57.4679 15.7593 58.7345 15.05C60.0012 14.3407 61.3945 13.986 62.9145 13.986C64.4345 13.986 65.5619 14.2393 66.2965 14.746C67.0565 15.2273 67.3479 15.81 67.1705 16.494C67.0945 16.8487 66.9425 17.1273 66.7145 17.33C66.5119 17.5073 66.2712 17.6213 65.9925 17.672C65.7139 17.7227 65.4099 17.71 65.0805 17.634C63.4592 17.3047 62.0025 17.2793 60.7105 17.558C59.4185 17.8367 58.3925 18.356 57.6325 19.116C56.8979 19.876 56.5305 20.8387 56.5305 22.004H54.5925ZM54.6305 35C54.0225 35 53.5539 34.848 53.2245 34.544C52.8952 34.2147 52.7305 33.7333 52.7305 33.1V16.114C52.7305 15.506 52.8952 15.0373 53.2245 14.708C53.5539 14.3787 54.0225 14.214 54.6305 14.214C55.2639 14.214 55.7325 14.3787 56.0365 14.708C56.3659 15.012 56.5305 15.4807 56.5305 16.114V33.1C56.5305 33.708 56.3659 34.1767 56.0365 34.506C55.7325 34.8353 55.2639 35 54.6305 35ZM73.529 35C72.9717 35 72.503 34.8227 72.123 34.468C71.7683 34.088 71.591 33.6193 71.591 33.062V16.152C71.591 15.5693 71.7683 15.1007 72.123 14.746C72.503 14.3913 72.9717 14.214 73.529 14.214C74.1117 14.214 74.5803 14.3913 74.935 14.746C75.2897 15.1007 75.467 15.5693 75.467 16.152V33.062C75.467 33.6193 75.2897 34.088 74.935 34.468C74.5803 34.8227 74.1117 35 73.529 35ZM73.529 10.832C72.845 10.832 72.2497 10.5913 71.743 10.11C71.2617 9.60333 71.021 9.008 71.021 8.324C71.021 7.64 71.2617 7.05733 71.743 6.576C72.2497 6.06933 72.845 5.816 73.529 5.816C74.213 5.816 74.7957 6.06933 75.277 6.576C75.7837 7.05733 76.037 7.64 76.037 8.324C76.037 9.008 75.7837 9.60333 75.277 10.11C74.7957 10.5913 74.213 10.832 73.529 10.832ZM100.234 35.038C99.6765 35.038 99.2078 34.8607 98.8278 34.506C98.4731 34.126 98.2958 33.6573 98.2958 33.1V23.752C98.2958 22.308 98.0298 21.13 97.4978 20.218C96.9658 19.306 96.2438 18.6347 95.3318 18.204C94.4451 17.748 93.4191 17.52 92.2538 17.52C91.1898 17.52 90.2271 17.7353 89.3658 18.166C88.5045 18.5967 87.8205 19.1793 87.3138 19.914C86.8071 20.6233 86.5538 21.4467 86.5538 22.384H84.1598C84.1598 20.788 84.5398 19.3693 85.2998 18.128C86.0851 16.8613 87.1491 15.8607 88.4918 15.126C89.8345 14.3913 91.3418 14.024 93.0138 14.024C94.7618 14.024 96.3198 14.404 97.6878 15.164C99.0811 15.8987 100.17 16.988 100.956 18.432C101.766 19.876 102.172 21.6493 102.172 23.752V33.1C102.172 33.6573 101.982 34.126 101.602 34.506C101.247 34.8607 100.791 35.038 100.234 35.038ZM84.6158 35.038C84.0585 35.038 83.5898 34.8607 83.2098 34.506C82.8551 34.126 82.6778 33.6573 82.6778 33.1V16.152C82.6778 15.5693 82.8551 15.1007 83.2098 14.746C83.5898 14.3913 84.0585 14.214 84.6158 14.214C85.1985 14.214 85.6671 14.3913 86.0218 14.746C86.3765 15.1007 86.5538 15.5693 86.5538 16.152V33.1C86.5538 33.6573 86.3765 34.126 86.0218 34.506C85.6671 34.8607 85.1985 35.038 84.6158 35.038ZM117.244 35.152C115.344 35.152 113.659 34.7087 112.19 33.822C110.746 32.91 109.606 31.6687 108.77 30.098C107.934 28.502 107.516 26.678 107.516 24.626C107.516 22.5487 107.959 20.7247 108.846 19.154C109.758 17.558 110.999 16.3167 112.57 15.43C114.141 14.518 115.952 14.062 118.004 14.062C120.031 14.062 121.829 14.518 123.4 15.43C124.971 16.3167 126.199 17.558 127.086 19.154C127.998 20.7247 128.454 22.5487 128.454 24.626H126.212C126.212 26.678 125.819 28.502 125.034 30.098C124.274 31.6687 123.223 32.91 121.88 33.822C120.537 34.7087 118.992 35.152 117.244 35.152ZM117.928 43.626C116.129 43.626 114.445 43.2713 112.874 42.562C111.303 41.8527 109.973 40.814 108.884 39.446C108.555 39.0153 108.428 38.572 108.504 38.116C108.605 37.66 108.859 37.2927 109.264 37.014C109.72 36.71 110.189 36.6087 110.67 36.71C111.177 36.8113 111.582 37.0647 111.886 37.47C112.57 38.3313 113.431 39.0027 114.47 39.484C115.509 39.9653 116.687 40.206 118.004 40.206C119.22 40.206 120.335 39.9147 121.348 39.332C122.387 38.7493 123.21 37.888 123.818 36.748C124.426 35.608 124.73 34.2147 124.73 32.568V27.172L125.984 23.828L128.454 24.626V32.834C128.454 34.8353 128.011 36.6467 127.124 38.268C126.237 39.9147 124.996 41.2193 123.4 42.182C121.829 43.1447 120.005 43.626 117.928 43.626ZM118.004 31.732C119.321 31.732 120.487 31.428 121.5 30.82C122.513 30.212 123.299 29.376 123.856 28.312C124.439 27.248 124.73 26.0193 124.73 24.626C124.73 23.2327 124.439 22.004 123.856 20.94C123.299 19.8507 122.513 19.002 121.5 18.394C120.487 17.786 119.321 17.482 118.004 17.482C116.687 17.482 115.521 17.786 114.508 18.394C113.495 19.002 112.697 19.8507 112.114 20.94C111.531 22.004 111.24 23.2327 111.24 24.626C111.24 26.0193 111.531 27.248 112.114 28.312C112.697 29.376 113.495 30.212 114.508 30.82C115.521 31.428 116.687 31.732 118.004 31.732Z" fill="#413E7E"/>
</svg>
