<?xml version="1.0" standalone="no"?>
<!DOCTYPE svg PUBLIC "-//W3C//DTD SVG 20010904//EN"
 "http://www.w3.org/TR/2001/REC-SVG-20010904/DTD/svg10.dtd">
<svg version="1.0" xmlns="http://www.w3.org/2000/svg"
 width="448.000000pt" height="376.000000pt" viewBox="0 0 448.000000 376.000000"
 preserveAspectRatio="xMidYMid meet">

<g transform="translate(0.000000,376.000000) scale(0.100000,-0.100000)"
fill="#7370d8" stroke="none">
<path d="M2277 3450 c-48 -9 -57 -18 -63 -66 -10 -77 -13 -82 -57 -103 -55
-26 -58 -26 -103 4 -20 14 -45 25 -55 25 -23 0 -69 -39 -103 -89 -32 -46 -30
-65 17 -118 l31 -35 -20 -56 c-18 -53 -22 -57 -56 -63 -20 -3 -48 -14 -63 -23
-26 -17 -27 -21 -23 -93 3 -64 7 -78 27 -94 13 -10 39 -19 58 -19 49 0 68 -13
93 -65 l22 -46 -26 -39 c-36 -55 -34 -85 12 -127 77 -71 106 -75 169 -20 l35
31 52 -18 c57 -21 66 -29 66 -67 0 -15 9 -38 21 -53 18 -23 28 -26 80 -26 97
0 129 26 129 106 0 33 14 49 72 78 l36 18 35 -26 c54 -41 87 -35 141 25 57 63
61 101 16 144 -33 31 -35 42 -20 97 14 48 34 68 71 68 19 0 40 10 56 26 24 24
25 31 20 88 -3 33 -9 68 -12 77 -8 23 -49 39 -95 39 -35 0 -40 4 -64 46 -14
26 -26 51 -26 55 0 5 11 27 25 49 36 58 32 76 -27 131 -57 53 -103 64 -129 32
-8 -9 -27 -24 -42 -33 -25 -16 -32 -16 -70 -3 -54 19 -67 30 -67 60 0 31 -25
79 -45 87 -20 7 -68 6 -118 -4z m112 -109 c17 -58 20 -60 96 -85 70 -23 96
-20 135 14 19 16 39 29 44 30 15 0 76 -50 76 -64 0 -6 -11 -27 -25 -46 -33
-45 -32 -65 11 -143 l37 -66 61 -8 61 -8 3 -51 3 -52 -50 -12 c-60 -14 -70
-25 -93 -99 -24 -77 -23 -95 12 -134 38 -43 38 -56 0 -92 l-30 -29 -54 29 -54
29 -63 -33 c-88 -47 -87 -46 -95 -112 l-7 -59 -52 0 -53 0 -12 50 c-6 27 -17
54 -24 59 -13 11 -133 51 -153 51 -7 0 -30 -16 -52 -35 -21 -19 -41 -35 -45
-35 -14 0 -76 55 -76 68 0 7 11 30 25 50 32 47 31 56 -6 128 -39 73 -52 84
-103 84 -59 0 -68 9 -64 65 l3 48 50 14 c56 17 62 24 87 103 24 76 23 84 -18
130 l-36 40 27 36 c36 48 48 50 88 20 43 -33 72 -33 133 1 74 40 84 51 84 95
0 64 14 80 67 76 l46 -3 16 -54z"/>
<path d="M2255 3109 c-92 -46 -147 -133 -148 -235 -1 -71 14 -113 59 -169 48
-61 109 -88 197 -88 61 0 82 4 125 28 55 30 94 72 118 130 18 45 18 153 -1
199 -22 52 -78 111 -130 135 -60 28 -164 28 -220 0z m217 -65 c21 -13 50 -43
65 -66 38 -56 39 -143 4 -205 -74 -129 -258 -138 -344 -17 -37 52 -46 128 -23
188 20 51 82 113 123 122 16 3 33 7 38 9 24 9 103 -8 137 -31z"/>
<path d="M732 3042 c-41 -12 -88 -59 -100 -100 -9 -29 -12 -288 -12 -1011 l0
-972 -124 -194 c-68 -106 -130 -209 -137 -228 -15 -42 0 -87 39 -117 24 -20
50 -20 1825 -20 l1800 0 33 36 c54 57 49 76 -66 258 -55 87 -100 160 -100 163
0 3 -15 25 -32 50 l-33 45 -5 1002 c-4 774 -8 1006 -17 1023 -7 12 -28 32 -45
45 -33 23 -37 23 -348 26 -173 2 -325 0 -337 -3 -14 -3 -23 -13 -23 -25 0 -19
11 -19 324 -22 310 -3 326 -4 352 -24 16 -11 32 -34 36 -51 5 -17 7 -460 6
-985 l-3 -953 -1540 0 -1540 0 -2 970 -3 970 23 29 c17 21 36 31 73 37 27 4
245 8 484 8 239 0 441 0 448 0 18 1 15 38 -4 45 -21 8 -943 6 -972 -2z m3174
-2320 c68 -106 124 -203 124 -216 0 -13 -8 -30 -18 -40 -17 -15 -66 -16 -548
-14 l-529 3 -32 50 c-61 96 -89 130 -118 145 -25 13 -111 15 -540 18 -370 2
-522 0 -553 -9 -48 -13 -94 -60 -131 -133 -41 -82 9 -76 -579 -76 -461 0 -530
2 -550 16 -12 8 -22 24 -22 34 0 10 25 59 55 107 30 48 66 108 81 133 15 25
47 75 71 113 l44 67 1561 -2 1561 -3 123 -193z m-1141 -128 c31 -20 88 -112
81 -130 -5 -12 -106 -14 -624 -14 -340 0 -622 3 -625 6 -9 10 41 95 74 127
l29 27 521 0 c459 0 523 -2 544 -16z"/>
<path d="M1583 2488 c-11 -13 -30 -44 -41 -70 -19 -43 -24 -48 -54 -48 -18 0
-50 -4 -71 -9 -37 -9 -38 -9 -78 45 -38 52 -52 60 -102 54 -31 -3 -121 -57
-142 -84 -19 -26 -19 -27 5 -95 l23 -68 -49 -57 c-37 -43 -54 -56 -69 -52 -79
20 -103 19 -128 -6 -26 -26 -57 -116 -57 -165 0 -35 30 -65 83 -84 47 -17 53
-27 62 -106 l7 -62 -50 -36 c-75 -54 -79 -77 -27 -171 51 -90 76 -100 161 -64
52 23 56 21 119 -34 17 -14 34 -26 39 -26 5 0 6 -33 2 -75 -6 -70 -5 -77 16
-98 13 -13 53 -30 95 -41 69 -17 74 -17 99 -1 14 9 37 41 50 71 20 47 28 54
51 54 16 0 46 5 68 11 43 12 37 16 112 -74 32 -37 76 -35 149 6 81 45 90 67
62 150 l-21 65 29 34 c16 18 36 44 45 57 15 24 17 24 72 13 59 -12 97 -5 113
20 16 24 44 123 44 155 0 39 -25 65 -81 83 -48 16 -54 27 -62 107 -6 60 -6 62
26 87 89 71 94 89 51 171 -52 100 -81 113 -169 75 -52 -22 -50 -23 -118 34
l-49 40 7 67 c6 60 5 68 -17 91 -14 16 -47 32 -84 42 -80 21 -97 20 -121 -6z
m140 -60 c27 -10 27 -11 25 -91 -3 -75 -2 -80 22 -96 13 -9 44 -33 68 -53 48
-42 78 -47 135 -23 60 25 74 20 102 -36 27 -53 26 -84 -3 -93 -9 -3 -30 -17
-46 -31 -28 -24 -29 -29 -28 -101 3 -108 19 -139 86 -169 30 -13 57 -28 60
-33 6 -10 -26 -117 -38 -129 -3 -3 -30 -1 -60 6 -47 10 -59 10 -85 -4 -17 -8
-31 -19 -31 -23 0 -5 -20 -32 -45 -61 -51 -59 -54 -78 -24 -145 11 -26 18 -54
15 -61 -3 -8 -29 -25 -58 -39 l-53 -26 -23 27 c-13 16 -34 41 -47 56 -24 28
-25 28 -112 21 -101 -7 -127 -20 -150 -72 -8 -20 -19 -44 -23 -52 -10 -19 -62
-17 -114 5 -32 14 -37 20 -31 38 14 46 16 112 3 127 -7 8 -38 36 -70 63 -46
38 -63 47 -95 47 -21 -1 -49 -7 -63 -15 -46 -26 -65 -19 -94 35 -31 57 -28 77
16 105 17 11 40 31 50 45 17 23 17 32 5 110 -7 47 -17 92 -22 101 -6 8 -32 25
-60 36 -35 15 -51 28 -53 43 -5 31 20 111 37 118 7 3 35 0 63 -6 41 -10 54 -9
79 3 16 9 29 19 29 24 0 4 19 30 43 56 35 41 42 55 41 89 0 23 -9 56 -18 74
-10 19 -15 40 -12 47 7 19 101 66 118 60 7 -3 27 -25 43 -50 17 -24 39 -46 50
-49 33 -9 169 6 193 21 12 7 34 39 47 70 l25 55 37 -6 c21 -4 50 -12 66 -18z"/>
<path d="M1445 2121 c-57 -15 -110 -46 -156 -91 -135 -134 -112 -361 46 -470
197 -135 466 -7 483 231 12 176 -108 318 -284 333 -33 3 -72 1 -89 -3z m180
-79 c175 -89 187 -328 23 -438 -129 -87 -313 -31 -373 113 -19 45 -19 151 0
196 27 66 92 125 163 148 43 14 143 4 187 -19z"/>
<path d="M2875 2319 c-87 -11 -154 -52 -155 -92 0 -21 18 -39 165 -172 143
-129 145 -132 145 -159 0 -30 -196 -256 -235 -270 -28 -11 -23 -15 -215 157
-73 64 -140 117 -149 117 -76 0 -107 -195 -50 -315 37 -80 224 -251 339 -311
61 -32 117 -36 278 -19 62 6 93 5 125 -5 38 -13 115 -54 127 -69 3 -4 35 -33
72 -65 43 -36 73 -56 83 -52 30 11 14 44 -47 97 -35 30 -72 62 -83 72 -63 58
-201 96 -284 78 -29 -6 -85 -11 -126 -11 -83 0 -127 18 -219 90 -77 59 -192
173 -209 207 -32 61 -41 120 -27 179 7 30 17 54 21 54 9 0 40 -26 193 -162
105 -94 111 -98 155 -98 55 0 66 8 188 145 111 125 123 142 123 180 0 46 -24
75 -160 197 -118 105 -139 126 -140 138 0 3 15 12 33 20 44 21 163 19 204 -3
49 -26 203 -157 249 -213 77 -91 84 -111 84 -237 0 -200 32 -272 176 -400 99
-87 126 -100 132 -61 2 16 -15 36 -67 78 -155 127 -181 180 -181 370 0 141 -6
162 -74 252 -55 74 -221 223 -281 253 -55 28 -125 39 -190 30z"/>
</g>
</svg>
