<?xml version="1.0" standalone="no"?>
<!DOCTYPE svg PUBLIC "-//W3C//DTD SVG 20010904//EN"
 "http://www.w3.org/TR/2001/REC-SVG-20010904/DTD/svg10.dtd">
<svg version="1.0" xmlns="http://www.w3.org/2000/svg"
 width="238.000000pt" height="178.000000pt" viewBox="0 0 238.000000 178.000000"
 preserveAspectRatio="xMidYMid meet">

<g transform="translate(0.000000,178.000000) scale(0.100000,-0.100000)"
fill="#7370d8" stroke="none">
<path d="M1307 1506 c-123 -46 -197 -154 -197 -290 l0 -61 -176 -175 c-212
-211 -236 -249 -199 -320 25 -48 62 -70 118 -70 l50 0 196 195 197 195 71 0
c145 0 254 89 283 233 25 122 -28 166 -105 87 -49 -50 -81 -62 -122 -45 -33
14 -49 51 -37 88 4 12 26 43 50 69 45 48 51 62 35 87 -13 20 -116 25 -164 7z
m93 -47 c0 -5 -14 -27 -31 -49 -42 -52 -49 -107 -19 -154 27 -45 47 -56 101
-56 40 0 109 31 109 50 0 15 41 19 47 4 8 -21 -23 -101 -56 -142 -46 -59 -105
-83 -196 -81 l-76 2 -198 -197 c-183 -182 -200 -196 -233 -196 -28 0 -42 7
-57 26 -41 53 -35 63 170 270 105 105 195 198 200 205 5 8 6 37 3 64 -14 117
55 222 166 256 37 11 70 10 70 -2z"/>
<path d="M472 1390 c-61 -37 -63 -50 -60 -457 3 -360 3 -368 23 -368 20 0 20
7 22 365 2 264 6 371 15 388 25 49 47 52 338 52 253 0 271 1 268 18 -3 16 -26
17 -288 20 -271 2 -287 1 -318 -18z"/>
<path d="M1684 1399 c-12 -20 12 -29 92 -33 151 -7 144 15 144 -436 0 -321 2
-361 16 -367 9 -3 20 0 25 8 5 8 9 174 9 369 0 327 -2 358 -19 397 -27 59 -60
73 -170 73 -54 0 -93 -4 -97 -11z"/>
<path d="M369 484 c-10 -13 -10 -24 0 -62 15 -56 42 -88 96 -113 38 -17 80
-19 724 -19 678 0 685 0 729 21 47 23 86 74 97 127 13 63 16 62 -330 62 l-313
0 -33 -27 c-32 -27 -37 -28 -149 -28 -112 0 -117 1 -149 28 l-33 27 -313 0
c-272 0 -314 -2 -326 -16z m660 -64 c42 -29 49 -30 153 -30 111 0 160 11 187
43 12 15 45 17 298 17 243 0 284 -2 289 -15 9 -21 -20 -61 -59 -82 -30 -16
-84 -18 -707 -18 -627 0 -677 1 -707 18 -39 21 -68 61 -59 82 5 13 45 15 283
15 l278 0 44 -30z"/>
</g>
</svg>
