<?xml version="1.0" standalone="no"?>
<!DOCTYPE svg PUBLIC "-//W3C//DTD SVG 20010904//EN"
 "http://www.w3.org/TR/2001/REC-SVG-20010904/DTD/svg10.dtd">
<svg version="1.0" xmlns="http://www.w3.org/2000/svg"
 width="216.000000pt" height="232.000000pt" viewBox="0 0 216.000000 232.000000"
 preserveAspectRatio="xMidYMid meet">

<g transform="translate(0.000000,232.000000) scale(0.100000,-0.100000)"
fill="#7370d8" stroke="none">
<path d="M1010 2081 c-131 -23 -248 -92 -326 -195 -49 -65 -73 -116 -97 -208
l-22 -83 -50 -12 c-75 -19 -85 -37 -85 -165 0 -106 0 -107 31 -137 28 -28 36
-31 95 -31 l64 0 0 183 c1 144 4 196 19 248 42 156 159 278 320 337 63 23 219
23 283 -1 166 -59 287 -197 323 -366 10 -48 15 -128 15 -242 0 -180 -8 -216
-49 -239 -11 -5 -87 -10 -175 -10 -149 0 -155 1 -173 23 -49 61 -142 56 -170
-11 -28 -67 15 -132 87 -132 33 0 47 6 76 35 l35 35 160 0 c190 0 206 6 245
87 22 48 28 53 57 53 35 0 68 22 86 57 6 12 11 61 11 108 0 114 -16 151 -74
165 -61 16 -66 18 -70 32 -2 7 -11 43 -20 81 -54 218 -243 376 -467 390 -46 3
-104 2 -129 -2z m-445 -666 c0 -108 -1 -110 -23 -113 -47 -7 -62 22 -62 118 0
96 8 113 55 108 l30 -3 0 -110z m1145 96 c5 -11 10 -55 10 -99 0 -87 -16 -117
-62 -110 -22 3 -23 8 -29 98 -3 52 -3 103 -1 113 6 25 68 23 82 -2z m-572
-369 c5 -32 -16 -54 -47 -50 -18 2 -27 10 -29 26 -6 40 5 54 40 50 26 -2 34
-8 36 -26z"/>
<path d="M980 1928 c-106 -46 -155 -85 -205 -163 -37 -59 -68 -166 -63 -221
l3 -39 170 -3 c186 -3 225 5 278 53 29 27 67 95 67 118 0 8 -9 17 -20 20 -16
4 -24 -2 -36 -31 -8 -20 -25 -47 -36 -60 -43 -45 -72 -52 -219 -52 -162 0
-166 2 -144 85 19 72 40 108 92 160 131 129 331 132 457 8 90 -89 106 -143
106 -362 0 -87 3 -166 6 -175 3 -9 15 -16 25 -16 18 0 19 10 19 188 0 193 0
193 -49 315 -18 47 -104 123 -174 156 -60 28 -75 31 -159 30 -51 0 -104 -5
-118 -11z"/>
<path d="M717 1403 c-13 -12 -7 -152 9 -215 16 -63 59 -140 106 -189 35 -38
123 -83 190 -99 100 -23 237 9 310 74 28 25 30 28 15 43 -14 14 -18 14 -44 -4
-81 -57 -169 -77 -266 -62 -169 27 -277 177 -277 384 0 66 -2 75 -18 75 -10 0
-22 -3 -25 -7z"/>
<path d="M762 788 c-8 -8 -12 -47 -12 -109 l0 -97 33 -20 c17 -11 57 -33 87
-50 30 -16 80 -44 110 -61 112 -65 113 -65 178 -31 31 16 75 40 97 53 22 12
70 40 108 61 37 21 71 45 76 54 9 19 6 185 -4 201 -6 11 -124 15 -160 5 -12
-3 -33 -28 -48 -56 -66 -123 -100 -184 -109 -195 -18 -23 -37 -14 -56 25 -53
107 -110 202 -131 220 -19 16 -153 16 -169 0z m142 -53 c8 -9 41 -61 72 -116
42 -75 53 -104 45 -112 -8 -8 -21 -6 -49 8 -79 42 -157 89 -164 99 -11 16 -10
95 2 117 13 24 72 26 94 4z m470 9 c12 -5 16 -21 16 -69 0 -69 1 -68 -80 -113
-30 -16 -69 -38 -87 -48 -26 -15 -35 -16 -45 -6 -10 10 -9 19 6 45 10 18 34
61 54 97 19 36 42 73 50 83 15 17 56 22 86 11z"/>
<path d="M1549 789 c-21 -13 2 -42 37 -50 65 -13 132 -62 168 -123 20 -35 28
-65 34 -133 6 -79 9 -88 27 -88 17 0 20 8 23 50 11 171 -85 309 -239 344 -21
5 -43 5 -50 0z"/>
<path d="M570 783 c-75 -25 -147 -88 -182 -157 -23 -47 -38 -218 -20 -230 28
-17 40 6 44 92 3 72 9 94 30 127 44 69 121 125 171 125 25 0 47 17 47 37 0 13
-58 17 -90 6z"/>
</g>
</svg>
